HIERARCHY
ROOT Hips
{
	OFFSET 0.000000 0.000000 0.000000
	CHANNELS 6 Xposition Yposition Zposition Yrotation Xrotation Zrotation
	JOINT Chest
	{
		OFFSET 0.000000 -0.009281 11.569106
		CHANNELS 3 Yrotation Xrotation Zrotation
		JOINT Chest2
		{
			OFFSET -0.000000 0.016865 9.269641
			CHANNELS 3 Yrotation Xrotation Zrotation
			JOINT Chest3
			{
				OFFSET -0.000000 0.000001 8.374491
				CHANNELS 3 Yrotation Xrotation Zrotation
				JOINT Chest4
				{
					OFFSET -0.000000 0.000001 8.374493
					CHANNELS 3 Yrotation Xrotation Zrotation
					JOINT Neck
					{
						OFFSET -0.000000 0.000002 12.152554
						CHANNELS 3 Yrotation Xrotation Zrotation
						JOINT Head
						{
							OFFSET -0.000000 0.040101 7.802319
							CHANNELS 3 Yrotation Xrotation Zrotation
							End Site
							{
								OFFSET -0.000000 0.020947 14.853096
							}
						}
					}
					JOINT RightCollar
					{
						OFFSET 2.894404 0.000001 6.791374
						CHANNELS 3 Yrotation Xrotation Zrotation
						JOINT RightShoulder
						{
							OFFSET 13.574684 0.000001 0.000000
							CHANNELS 3 Yrotation Xrotation Zrotation
							JOINT RightElbow
							{
								OFFSET 23.923903 0.000002 0.000000
								CHANNELS 3 Yrotation Xrotation Zrotation
								JOINT RightWrist
								{
									OFFSET 19.846718 0.012767 0.000000
									CHANNELS 3 Yrotation Xrotation Zrotation
									End Site
									{
										OFFSET 14.973145 0.000001 0.000000
									}
								}
							}
						}
					}
					JOINT LeftCollar
					{
						OFFSET -2.894404 0.000001 6.791374
						CHANNELS 3 Yrotation Xrotation Zrotation
						JOINT LeftShoulder
						{
							OFFSET -13.574684 -0.000001 0.000000
							CHANNELS 3 Yrotation Xrotation Zrotation
							JOINT LeftElbow
							{
								OFFSET -23.923903 -0.000002 0.000000
								CHANNELS 3 Yrotation Xrotation Zrotation
								JOINT LeftWrist
								{
									OFFSET -19.846718 0.012763 0.000000
									CHANNELS 3 Yrotation Xrotation Zrotation
									End Site
									{
										OFFSET -14.973145 -0.000001 0.000000
									}
								}
							}
						}
					}
				}
			}
		}
	}
	JOINT RightHip
	{
		OFFSET 9.469263 0.004643 0.045487
		CHANNELS 3 Yrotation Xrotation Zrotation
		JOINT RightKnee
		{
			OFFSET 0.000000 0.002661 -40.478676
			CHANNELS 3 Yrotation Xrotation Zrotation
			JOINT RightAnkle
			{
				OFFSET 0.000000 0.049106 -35.224068
				CHANNELS 3 Yrotation Xrotation Zrotation
				JOINT RightToe
				{
					OFFSET -0.000001 12.539529 -6.151390
					CHANNELS 3 Yrotation Xrotation Zrotation
					End Site
					{
						OFFSET -0.000001 5.044994 -1.291870
					}
				}
			}
		}
	}
	JOINT LeftHip
	{
		OFFSET -9.469263 0.004641 0.045487
		CHANNELS 3 Yrotation Xrotation Zrotation
		JOINT LeftKnee
		{
			OFFSET 0.000000 0.002661 -40.478676
			CHANNELS 3 Yrotation Xrotation Zrotation
			JOINT LeftAnkle
			{
				OFFSET 0.000000 0.049106 -35.224068
				CHANNELS 3 Yrotation Xrotation Zrotation
				JOINT LeftToe
				{
					OFFSET -0.000001 12.539529 -6.151390
					CHANNELS 3 Yrotation Xrotation Zrotation
					End Site
					{
						OFFSET -0.000001 5.044994 -1.291870
					}
				}
			}
		}
	}
}
MOTION
Frames: 13
Frame Time: 0.016667
10.047537 6.018499 82.912361 -7.185762 -6.002600 -122.434051 -3.246575 -4.306715 -0.067021 -1.435608 -1.910631 -0.069609 -1.435608 -1.910631 -0.069608 -1.076823 -1.432819 -0.056695 3.323478 -21.581665 -12.686533 2.463772 -4.205937 -22.028601 -2.554577 -3.326953 -9.175945 43.473300 4.204860 47.259260 -34.390279 -32.879947 60.255205 -58.999700 21.745743 44.300436 -7.940524 -15.865141 -22.919144 -59.671784 -12.485661 -60.084846 -17.552278 9.036333 -24.758254 3.154521 5.174407 -19.983230 0.948989 -4.662455 0.851236 0.711531 -12.357157 1.743499 -0.240502 7.027947 1.047296 0.091373 0.024314 -0.000097 1.426546 -9.684503 4.203850 -1.145901 -8.477446 3.771150 2.112284 8.972373 5.712512 -0.089992 -0.027692 0.005339 
10.049291 6.014632 82.906387 -7.245721 -6.021932 -122.446072 -3.226713 -4.324475 -0.071746 -1.427948 -1.918762 -0.071988 -1.427948 -1.918761 -0.071986 -1.071087 -1.438913 -0.058477 3.326641 -21.586461 -12.688993 2.469486 -4.214513 -22.031923 -2.583420 -3.308499 -9.184350 43.393046 4.120490 47.218143 -34.378179 -33.233658 60.267581 -58.697143 21.486057 44.334809 -7.985405 -15.806617 -22.900504 -59.711344 -12.561271 -60.020424 -17.408805 9.062342 -24.491436 3.142660 5.156175 -19.951800 0.943980 -4.654938 0.871701 0.701882 -12.503915 1.800855 -0.278054 7.100891 0.971498 0.094734 0.024601 0.002310 1.406175 -9.712828 4.183284 -1.145341 -8.557332 3.834538 2.107232 9.020271 5.660539 -0.074879 -0.027902 0.002965 
10.052266 6.011559 82.901741 -7.307949 -6.039442 -122.442096 -3.203310 -4.339033 -0.084715 -1.418472 -1.925303 -0.077478 -1.418472 -1.925303 -0.077479 -1.063998 -1.443808 -0.062574 3.326335 -21.589460 -12.691618 2.468668 -4.220307 -22.036634 -2.623525 -3.328317 -9.172001 43.315817 4.099573 47.185102 -34.384327 -33.576623 60.305216 -58.459855 21.325229 44.353285 -8.031607 -15.761247 -22.881480 -59.733365 -12.627144 -59.979812 -17.252146 9.053790 -24.230410 3.062184 5.146999 -19.912317 0.931357 -4.657308 0.875065 0.702814 -12.633342 1.864491 -0.318882 7.165288 0.900347 0.095760 0.024745 0.003484 1.385854 -9.745143 4.165845 -1.143630 -8.627383 3.881426 2.099933 9.058937 5.660958 -0.060388 -0.025900 0.000630 
10.054135 6.010751 82.898041 -7.368636 -6.058339 -122.424857 -3.176160 -4.346036 -0.104025 -1.407252 -1.928696 -0.085928 -1.407253 -1.928695 -0.085926 -1.055610 -1.446333 -0.068883 3.320265 -21.593184 -12.692231 2.458146 -4.228146 -22.039315 -2.666288 -3.367228 -9.161334 43.197931 4.057608 47.166991 -34.341027 -33.854625 60.290893 -58.258850 21.186986 44.357390 -8.071957 -15.729068 -22.863358 -59.757250 -12.680123 -59.928640 -17.123991 9.032525 -24.042951 2.945083 5.118520 -19.855485 0.917652 -4.672167 0.870729 0.708607 -12.739020 1.921231 -0.358066 7.220318 0.827557 0.095878 0.023815 0.003755 1.365845 -9.777505 4.153773 -1.134545 -8.689216 3.921038 2.086797 9.091890 5.655339 -0.045957 -0.024698 -0.001143 
10.057434 6.011956 82.894691 -7.428587 -6.080866 -122.396239 -3.144250 -4.347258 -0.125466 -1.393577 -1.929029 -0.095229 -1.393578 -1.929028 -0.095233 -1.045386 -1.446563 -0.075817 3.307604 -21.599584 -12.692237 2.436341 -4.241856 -22.042658 -2.712289 -3.393252 -9.159601 43.039600 3.972099 47.143366 -34.272936 -34.096834 60.230760 -58.063561 21.032763 44.348026 -8.106246 -15.703273 -22.840325 -59.797965 -12.727485 -59.878998 -17.032562 9.026899 -23.887904 2.829385 5.093010 -19.801497 0.907131 -4.695001 0.864535 0.716291 -12.830416 1.962490 -0.392316 7.265964 0.759367 0.093902 0.024515 0.004295 1.351706 -9.816513 4.150118 -1.122750 -8.737416 3.946015 2.069752 9.121931 5.621620 -0.031818 -0.027244 -0.003085 
10.060988 6.010883 82.891632 -7.485442 -6.109432 -122.365844 -3.107660 -4.343246 -0.144955 -1.378078 -1.926718 -0.103675 -1.378077 -1.926718 -0.103677 -1.033788 -1.444815 -0.082099 3.292382 -21.609272 -12.691389 2.410640 -4.261938 -22.045028 -2.764362 -3.408218 -9.161880 42.865086 3.877585 47.122192 -34.187552 -34.341358 60.140417 -57.814239 20.856551 44.362912 -8.154197 -15.660531 -22.814387 -59.833693 -12.795872 -59.815115 -16.969781 9.061277 -23.744205 2.802010 5.027393 -19.747291 0.907100 -4.729144 0.863598 0.718304 -12.903093 1.974248 -0.414885 7.303655 0.714428 0.088471 0.024987 0.004913 1.343136 -9.863344 4.171735 -1.113266 -8.774503 3.950019 2.058829 9.150133 5.630411 -0.019773 -0.031177 -0.003741 
10.067110 6.008599 82.889153 -7.540254 -6.137288 -122.327882 -3.071706 -4.336673 -0.167427 -1.362649 -1.923156 -0.112910 -1.362648 -1.923155 -0.112909 -1.022246 -1.442124 -0.088962 3.281556 -21.620638 -12.692473 2.392558 -4.284618 -22.049560 -2.825939 -3.410285 -9.159020 42.722318 3.795197 47.100107 -34.143129 -34.604201 60.057771 -57.540676 20.655855 44.403149 -8.217157 -15.607496 -22.788371 -59.853255 -12.876738 -59.761792 -16.874887 9.098900 -23.565432 2.778157 4.931272 -19.724120 0.909121 -4.772016 0.866022 0.717364 -12.957502 1.959633 -0.427774 7.335176 0.696250 0.081777 0.024448 0.005772 1.340155 -9.912654 4.197015 -1.100469 -8.803660 3.940028 2.042431 9.175738 5.626376 -0.009745 -0.035193 -0.004848 
10.071307 6.005135 82.887276 -7.593158 -6.163687 -122.280057 -3.038954 -4.328520 -0.194848 -1.349237 -1.919791 -0.124258 -1.349236 -1.919791 -0.124260 -1.012223 -1.439578 -0.097428 3.275040 -21.631716 -12.690229 2.383050 -4.305819 -22.046853 -2.883526 -3.422199 -9.134341 42.617170 3.756956 47.072100 -34.128994 -34.872443 60.010206 -57.292313 20.490383 44.423421 -8.275216 -15.565226 -22.763369 -59.850147 -12.950199 -59.728297 -16.748927 9.095401 -23.395886 2.729378 4.862350 -19.647973 0.912054 -4.820466 0.879306 0.724050 -12.995643 1.917570 -0.440368 7.358186 0.681437 0.074580 0.024290 0.006081 1.338745 -9.956197 4.193877 -1.092100 -8.835005 3.955590 2.023766 9.201603 5.612168 0.000709 -0.038139 -0.005015 
10.075509 6.002792 82.885834 -7.645764 -6.191661 -122.227287 -3.006084 -4.319506 -0.223548 -1.335104 -1.916095 -0.136491 -1.335104 -1.916097 -0.136498 -1.001663 -1.436782 -0.106549 3.267167 -21.640153 -12.688890 2.370488 -4.322440 -22.046287 -2.940498 -3.436699 -9.108329 42.508779 3.723026 47.056506 -34.056392 -35.111626 59.936802 -57.056730 20.345744 44.422673 -8.332329 -15.536037 -22.738352 -59.838809 -13.008707 -59.706078 -16.628159 9.084975 -23.255380 2.693274 4.732840 -19.570044 0.916841 -4.873936 0.902674 0.731696 -13.023430 1.846243 -0.446325 7.375478 0.679106 0.067271 0.024362 0.006248 1.339505 -10.002640 4.185412 -1.076856 -8.858154 3.962375 1.997702 9.223221 5.580329 0.010893 -0.041469 -0.006313 
10.076955 5.998444 82.884636 -7.694245 -6.222032 -122.175897 -2.973427 -4.314163 -0.249040 -1.321195 -1.914035 -0.147066 -1.321194 -1.914034 -0.147058 -0.991265 -1.435217 -0.114427 3.257707 -21.639057 -12.688140 2.353558 -4.321798 -22.047676 -2.995071 -3.435669 -9.087794 42.395326 3.670539 47.043816 -33.971431 -35.303588 59.850933 -56.840305 20.174847 44.410440 -8.376296 -15.503279 -22.718623 -59.815996 -13.064396 -59.702765 -16.526961 9.095137 -23.127188 2.658560 4.605273 -19.524256 0.924681 -4.930700 0.923601 0.745968 -13.036973 1.756922 -0.452216 7.383547 0.696438 0.058757 0.024613 0.005716 1.342303 -10.049723 4.204520 -1.055619 -8.874954 3.936829 1.966379 9.241414 5.571229 0.024208 -0.044231 -0.005870 
10.078367 5.992655 82.883629 -7.740317 -6.249969 -122.123468 -2.936345 -4.306380 -0.276933 -1.305921 -1.910272 -0.158456 -1.305922 -1.910271 -0.158452 -0.979846 -1.432372 -0.122913 3.240472 -21.633868 -12.687151 2.322149 -4.314786 -22.051028 -3.057251 -3.443368 -9.069215 42.272816 3.616343 47.042218 -33.889633 -35.465102 59.778649 -56.590224 19.974226 44.370746 -8.439067 -15.455654 -22.702410 -59.786825 -13.136228 -59.693763 -16.437957 9.153703 -23.002090 2.605240 4.577482 -19.479768 0.932871 -4.989929 0.924761 0.753138 -13.040550 1.674840 -0.451207 7.386794 0.734374 0.049182 0.024829 0.005514 1.355018 -10.098904 4.241977 -1.032777 -8.881511 3.900698 1.920378 9.257956 5.486556 0.038464 -0.048717 -0.005538 
10.080801 5.982066 82.882851 -7.783298 -6.278295 -122.069004 -2.896302 -4.290170 -0.307632 -1.289531 -1.902321 -0.170826 -1.289530 -1.902322 -0.170825 -0.967592 -1.426387 -0.132122 3.215211 -21.633222 -12.685073 2.277291 -4.317263 -22.054513 -3.125807 -3.448010 -9.049865 42.161334 3.563583 47.046295 -33.796493 -35.634316 59.721822 -56.306649 19.728102 44.346294 -8.499981 -15.415597 -22.694253 -59.758363 -13.205466 -59.677337 -16.380940 9.248277 -22.893577 2.558817 4.598050 -19.451236 0.943374 -5.055350 0.907776 0.761562 -13.031646 1.598369 -0.452299 7.387354 0.782254 0.040329 0.023381 0.005362 1.366139 -10.153812 4.294805 -1.005973 -8.876422 3.866309 1.868695 9.272285 5.396176 0.053879 -0.052330 -0.004526 
10.084768 5.970108 82.881958 -7.827427 -6.305885 -122.017163 -2.859306 -4.270316 -0.340700 -1.273758 -1.893398 -0.184702 -1.273757 -1.893398 -0.184695 -0.955803 -1.419671 -0.142459 3.186581 -21.635546 -12.680011 2.227593 -4.325479 -22.053397 -3.200836 -3.444391 -9.030267 42.066650 3.522751 47.061783 -33.735636 -35.818134 59.707854 -56.024050 19.490872 44.363117 -8.555737 -15.390143 -22.693208 -59.713141 -13.256678 -59.659004 -16.329555 9.337770 -22.816477 2.555563 4.551545 -19.441268 0.949643 -5.119919 0.904667 0.779067 -13.027714 1.507107 -0.452551 7.389698 0.825259 0.029882 0.023554 0.004433 1.376742 -10.211356 4.350741 -0.980738 -8.871169 3.839056 1.814178 9.286598 5.339694 0.067628 -0.053620 -0.004424 
